<?xml version="1.0" encoding="UTF-8"?>
<!DOCTYPE svg PUBLIC "-//W3C//DTD SVG 1.1//EN" "http://www.w3.org/Graphics/SVG/1.1/DTD/svg11.dtd">
<svg xmlns="http://www.w3.org/2000/svg" version="1.1" width="640px" height="427px" style="shape-rendering:geometricPrecision; text-rendering:geometricPrecision; image-rendering:optimizeQuality; fill-rule:evenodd; clip-rule:evenodd" xmlns:xlink="http://www.w3.org/1999/xlink">
<g><path style="opacity:1" fill="#c60b1d" d="M -0.5,-0.5 C 212.833,-0.5 426.167,-0.5 639.5,-0.5C 639.5,35.1667 639.5,70.8333 639.5,106.5C 426.167,106.5 212.833,106.5 -0.5,106.5C -0.5,70.8333 -0.5,35.1667 -0.5,-0.5 Z"/></g>
<g><path style="opacity:1" fill="#fec300" d="M -0.5,106.5 C 212.833,106.5 426.167,106.5 639.5,106.5C 639.5,177.5 639.5,248.5 639.5,319.5C 426.167,319.5 212.833,319.5 -0.5,319.5C -0.5,248.5 -0.5,177.5 -0.5,106.5 Z"/></g>
<g><path style="opacity:1" fill="#5a695b" d="M 215.5,139.5 C 215.833,140.167 216.167,140.833 216.5,141.5C 215.791,142.404 214.791,142.737 213.5,142.5C 213.285,140.821 213.952,139.821 215.5,139.5 Z"/></g>
<g><path style="opacity:1" fill="#9e831e" d="M 215.5,139.5 C 213.952,139.821 213.285,140.821 213.5,142.5C 214.791,142.737 215.791,142.404 216.5,141.5C 217.833,142.167 217.833,142.833 216.5,143.5C 214.143,143.337 211.81,143.503 209.5,144C 211.25,145.319 213.25,145.819 215.5,145.5C 218.763,144.518 222.097,143.851 225.5,143.5C 225.329,146.797 225.995,147.131 227.5,144.5C 228.197,146.385 229.197,146.718 230.5,145.5C 236.893,148.024 243.56,149.357 250.5,149.5C 250.119,151.942 250.786,152.609 252.5,151.5C 254.833,153.833 257.167,156.167 259.5,158.5C 258.975,159.192 258.308,159.692 257.5,160C 260.167,161 260.167,162 257.5,163C 258.308,163.308 258.975,163.808 259.5,164.5C 258.761,167.65 257.261,170.316 255,172.5C 253.238,172.056 253.405,171.556 255.5,171C 253.866,170.506 252.199,170.34 250.5,170.5C 251.398,169.842 252.398,169.176 253.5,168.5C 252.691,166.929 252.357,165.262 252.5,163.5C 254.228,158.792 252.561,155.625 247.5,154C 244.232,152.787 240.899,152.454 237.5,153C 237.736,155.118 237.736,157.284 237.5,159.5C 235.895,160.918 234.895,162.752 234.5,165C 235.722,166.563 235.722,168.063 234.5,169.5C 233.5,169.5 232.5,169.5 231.5,169.5C 231.231,175.231 233.898,177.898 239.5,177.5C 239.281,176.325 239.614,175.325 240.5,174.5C 241.429,175.689 241.762,177.022 241.5,178.5C 243.936,178.683 246.103,178.016 248,176.5C 248.399,176.728 248.565,177.062 248.5,177.5C 245.5,179.833 242.833,182.5 240.5,185.5C 236.674,184.52 236.674,183.687 240.5,183C 236.242,181.568 231.909,180.901 227.5,181C 228.624,181.249 229.624,181.749 230.5,182.5C 228.604,183.466 226.604,183.799 224.5,183.5C 224.67,182.178 224.337,181.011 223.5,180C 225.833,179.667 228.167,179.333 230.5,179C 227.044,178.82 223.711,178.153 220.5,177C 221.564,175.489 222.897,175.323 224.5,176.5C 228.241,177.401 230.241,176.068 230.5,172.5C 228.042,172.773 226.375,171.773 225.5,169.5C 226.82,167.73 228.32,167.397 230,168.5C 233.207,164.969 233.04,161.636 229.5,158.5C 230.833,158.5 232.167,158.5 233.5,158.5C 234.536,153.376 232.536,150.21 227.5,149C 224.036,148.183 220.702,148.517 217.5,150C 216.594,151.699 216.261,153.533 216.5,155.5C 218.358,158.631 217.691,161.131 214.5,163C 215.337,164.011 215.67,165.178 215.5,166.5C 211.476,168.307 210.142,167.141 211.5,163C 210.313,161.981 209.313,160.814 208.5,159.5C 209.705,158.005 209.705,156.672 208.5,155.5C 208.799,153.396 208.466,151.396 207.5,149.5C 201.974,147.497 197.141,148.497 193,152.5C 192.211,154.712 192.378,156.712 193.5,158.5C 194.673,160.341 194.673,162.174 193.5,164C 194.581,165.371 195.415,166.871 196,168.5C 197.68,167.397 199.18,167.73 200.5,169.5C 199.625,171.773 197.958,172.773 195.5,172.5C 195.433,173.959 195.766,175.292 196.5,176.5C 194.09,177.389 191.59,178.055 189,178.5C 187.833,178.167 186.667,177.833 185.5,177.5C 185.624,176.893 185.957,176.56 186.5,176.5C 191.98,178.049 194.646,175.716 194.5,169.5C 193.5,169.5 192.5,169.5 191.5,169.5C 190.278,168.063 190.278,166.563 191.5,165C 190.368,163.235 189.368,161.402 188.5,159.5C 187.232,157.33 187.232,155.163 188.5,153C 182.639,152.256 177.472,153.756 173,157.5C 172.211,159.712 172.378,161.712 173.5,163.5C 173.822,165.722 173.155,167.556 171.5,169C 173.058,169.21 174.391,169.71 175.5,170.5C 173.801,170.34 172.134,170.506 170.5,171C 172.595,171.556 172.762,172.056 171,172.5C 169.338,171.003 167.838,169.337 166.5,167.5C 167.833,166.5 167.833,165.5 166.5,164.5C 167.025,163.808 167.692,163.308 168.5,163C 165.833,162 165.833,161 168.5,160C 167.692,159.692 167.025,159.192 166.5,158.5C 170.309,152.964 175.309,149.631 181.5,148.5C 182.192,149.025 182.692,149.692 183,150.5C 184,147.833 185,147.833 186,150.5C 187,147.833 188,147.833 189,150.5C 190.655,147.511 193.155,145.677 196.5,145C 200.486,144.501 204.486,144.334 208.5,144.5C 208.98,141.995 209.98,139.662 211.5,137.5C 209.029,135.038 209.529,133.038 213,131.5C 216.471,133.038 216.971,135.038 214.5,137.5C 214.863,138.183 215.196,138.85 215.5,139.5 Z"/></g>
<g><path style="opacity:1" fill="#3a5d73" d="M 216.5,143.5 C 216.167,144.167 215.833,144.833 215.5,145.5C 213.25,145.819 211.25,145.319 209.5,144C 211.81,143.503 214.143,143.337 216.5,143.5 Z"/></g>
<g><path style="opacity:1" fill="#fdc300" d="M 208.5,155.5 C 203.4,156.025 198.4,157.025 193.5,158.5C 192.378,156.712 192.211,154.712 193,152.5C 197.141,148.497 201.974,147.497 207.5,149.5C 208.466,151.396 208.799,153.396 208.5,155.5 Z"/></g>
<g><path style="opacity:1" fill="#fbc100" d="M 229.5,158.5 C 225.336,156.867 221.003,155.867 216.5,155.5C 216.261,153.533 216.594,151.699 217.5,150C 220.702,148.517 224.036,148.183 227.5,149C 232.536,150.21 234.536,153.376 233.5,158.5C 232.167,158.5 230.833,158.5 229.5,158.5 Z"/></g>
<g><path style="opacity:1" fill="#fbc100" d="M 188.5,159.5 C 182.897,158.817 177.897,160.151 173.5,163.5C 172.378,161.712 172.211,159.712 173,157.5C 177.472,153.756 182.639,152.256 188.5,153C 187.232,155.163 187.232,157.33 188.5,159.5 Z"/></g>
<g><path style="opacity:1" fill="#fcc100" d="M 252.5,163.5 C 247.901,160.703 242.901,159.369 237.5,159.5C 237.736,157.284 237.736,155.118 237.5,153C 240.899,152.454 244.232,152.787 247.5,154C 252.561,155.625 254.228,158.792 252.5,163.5 Z"/></g>
<g><path style="opacity:1" fill="#a12418" d="M 208.5,155.5 C 209.705,156.672 209.705,158.005 208.5,159.5C 209.313,160.814 210.313,161.981 211.5,163C 210.142,167.141 211.476,168.307 215.5,166.5C 215.67,165.178 215.337,164.011 214.5,163C 217.691,161.131 218.358,158.631 216.5,155.5C 221.003,155.867 225.336,156.867 229.5,158.5C 233.04,161.636 233.207,164.969 230,168.5C 228.32,167.397 226.82,167.73 225.5,169.5C 226.375,171.773 228.042,172.773 230.5,172.5C 230.241,176.068 228.241,177.401 224.5,176.5C 223.562,173.955 222.229,173.455 220.5,175C 216.834,176.271 214.334,175.104 213,171.5C 212.252,173.751 210.752,175.084 208.5,175.5C 206.61,175.703 205.11,175.037 204,173.5C 202.152,176.041 199.652,177.041 196.5,176.5C 195.766,175.292 195.433,173.959 195.5,172.5C 197.958,172.773 199.625,171.773 200.5,169.5C 199.18,167.73 197.68,167.397 196,168.5C 195.415,166.871 194.581,165.371 193.5,164C 194.673,162.174 194.673,160.341 193.5,158.5C 198.4,157.025 203.4,156.025 208.5,155.5 Z"/></g>
<g><path style="opacity:1" fill="#9f2116" d="M 188.5,159.5 C 189.368,161.402 190.368,163.235 191.5,165C 190.278,166.563 190.278,168.063 191.5,169.5C 192.5,169.5 193.5,169.5 194.5,169.5C 194.646,175.716 191.98,178.049 186.5,176.5C 186.585,175.005 185.919,174.005 184.5,173.5C 183.948,175.003 183.948,176.669 184.5,178.5C 183.5,178.5 182.5,178.5 181.5,178.5C 180.279,177.972 179.113,177.305 178,176.5C 177.601,176.728 177.435,177.062 177.5,177.5C 175.436,177.238 174.103,176.071 173.5,174C 174.973,173.29 175.64,172.124 175.5,170.5C 174.391,169.71 173.058,169.21 171.5,169C 173.155,167.556 173.822,165.722 173.5,163.5C 177.897,160.151 182.897,158.817 188.5,159.5 Z"/></g>
<g><path style="opacity:1" fill="#9f2216" d="M 237.5,159.5 C 242.901,159.369 247.901,160.703 252.5,163.5C 252.357,165.262 252.691,166.929 253.5,168.5C 252.398,169.176 251.398,169.842 250.5,170.5C 250.36,172.124 251.027,173.29 252.5,174C 251.897,176.071 250.564,177.238 248.5,177.5C 248.565,177.062 248.399,176.728 248,176.5C 246.103,178.016 243.936,178.683 241.5,178.5C 241.762,177.022 241.429,175.689 240.5,174.5C 239.614,175.325 239.281,176.325 239.5,177.5C 233.898,177.898 231.231,175.231 231.5,169.5C 232.5,169.5 233.5,169.5 234.5,169.5C 235.722,168.063 235.722,166.563 234.5,165C 234.895,162.752 235.895,160.918 237.5,159.5 Z"/></g>
<g><path style="opacity:1" fill="#bea700" d="M 207.5,166.5 C 211.147,167.873 211.314,169.539 208,171.5C 206.745,170.789 205.579,169.956 204.5,169C 205.942,168.623 206.942,167.79 207.5,166.5 Z"/></g>
<g><path style="opacity:1" fill="#b69d01" d="M 216.5,166.5 C 222.912,168.558 222.578,170.225 215.5,171.5C 215.366,169.708 215.699,168.042 216.5,166.5 Z"/></g>
<g><path style="opacity:1" fill="#bca400" d="M 191.5,169.5 C 191.256,173.789 189.589,174.456 186.5,171.5C 187.85,170.05 189.516,169.383 191.5,169.5 Z"/></g>
<g><path style="opacity:1" fill="#bba300" d="M 234.5,169.5 C 239.511,169.746 240.177,171.079 236.5,173.5C 234.889,172.68 234.222,171.346 234.5,169.5 Z"/></g>
<g><path style="opacity:1" fill="#c1a900" d="M 178.5,171.5 C 183.294,172.052 183.628,173.386 179.5,175.5C 175.906,174.918 175.573,173.585 178.5,171.5 Z"/></g>
<g><path style="opacity:1" fill="#bda600" d="M 245.5,171.5 C 249.782,172.657 250.115,173.99 246.5,175.5C 243.49,174.301 243.157,172.967 245.5,171.5 Z"/></g>
<g><path style="opacity:1" fill="#865719" d="M 186.5,176.5 C 185.957,176.56 185.624,176.893 185.5,177.5C 186.667,177.833 187.833,178.167 189,178.5C 191.59,178.055 194.09,177.389 196.5,176.5C 199.652,177.041 202.152,176.041 204,173.5C 205.11,175.037 206.61,175.703 208.5,175.5C 210.153,176.799 211.653,176.466 213,174.5C 213.833,175.333 214.667,176.167 215.5,177C 205.754,177.546 196.087,178.713 186.5,180.5C 184.578,180.199 182.912,179.533 181.5,178.5C 182.5,178.5 183.5,178.5 184.5,178.5C 183.948,176.669 183.948,175.003 184.5,173.5C 185.919,174.005 186.585,175.005 186.5,176.5 Z"/></g>
<g><path style="opacity:1" fill="#a7920c" d="M 224.5,176.5 C 222.897,175.323 221.564,175.489 220.5,177C 223.711,178.153 227.044,178.82 230.5,179C 228.167,179.333 225.833,179.667 223.5,180C 224.337,181.011 224.67,182.178 224.5,183.5C 226.604,183.799 228.604,183.466 230.5,182.5C 229.624,181.749 228.624,181.249 227.5,181C 231.909,180.901 236.242,181.568 240.5,183C 236.674,183.687 236.674,184.52 240.5,185.5C 240.762,186.978 240.429,188.311 239.5,189.5C 237.974,189.994 236.641,190.661 235.5,191.5C 232.167,191.5 228.833,191.5 225.5,191.5C 225.5,191.167 225.5,190.833 225.5,190.5C 228.568,190.453 231.568,189.953 234.5,189C 231.553,186.836 228.219,186.002 224.5,186.5C 212.9,185.011 201.234,185.511 189.5,188C 193.172,190.13 197.172,190.963 201.5,190.5C 198.038,191.482 194.371,191.815 190.5,191.5C 189.122,190.766 187.622,190.099 186,189.5C 185.64,187.392 184.973,185.392 184,183.5C 181.665,181.6 179.498,179.6 177.5,177.5C 177.435,177.062 177.601,176.728 178,176.5C 179.113,177.305 180.279,177.972 181.5,178.5C 182.912,179.533 184.578,180.199 186.5,180.5C 196.087,178.713 205.754,177.546 215.5,177C 214.667,176.167 213.833,175.333 213,174.5C 211.653,176.466 210.153,176.799 208.5,175.5C 210.752,175.084 212.252,173.751 213,171.5C 214.334,175.104 216.834,176.271 220.5,175C 222.229,173.455 223.562,173.955 224.5,176.5 Z"/></g>
<g><path style="opacity:1" fill="#7f200f" d="M 209.5,180.5 C 211.924,180.192 214.257,180.526 216.5,181.5C 215.333,181.833 214.167,182.167 213,182.5C 211.319,182.392 210.152,181.725 209.5,180.5 Z"/></g>
<g><path style="opacity:1" fill="#982813" d="M 142.5,183.5 C 144.561,184.751 144.894,186.418 143.5,188.5C 142.583,187.873 141.583,187.539 140.5,187.5C 139.024,185.291 139.691,183.958 142.5,183.5 Z"/></g>
<g><path style="opacity:1" fill="#5a190b" d="M 224.5,186.5 C 217.5,186.5 210.5,186.5 203.5,186.5C 203.5,187.833 203.5,189.167 203.5,190.5C 202.833,190.5 202.167,190.5 201.5,190.5C 197.172,190.963 193.172,190.13 189.5,188C 201.234,185.511 212.9,185.011 224.5,186.5 Z"/></g>
<g><path style="opacity:1" fill="#9e1916" d="M 224.5,186.5 C 228.219,186.002 231.553,186.836 234.5,189C 231.568,189.953 228.568,190.453 225.5,190.5C 218.167,190.5 210.833,190.5 203.5,190.5C 203.5,189.167 203.5,187.833 203.5,186.5C 210.5,186.5 217.5,186.5 224.5,186.5 Z"/></g>
<g><path style="opacity:1" fill="#7c480b" d="M 156.5,189.5 C 154.952,189.821 154.285,190.821 154.5,192.5C 151.15,192.665 147.817,192.498 144.5,192C 147.5,191.667 150.5,191.333 153.5,191C 149.741,188.994 146.741,186.161 144.5,182.5C 145.833,182.5 147.167,182.5 148.5,182.5C 149.167,178.5 149.833,178.5 150.5,182.5C 155.993,181.178 158.493,183.178 158,188.5C 157.617,189.056 157.117,189.389 156.5,189.5 Z"/></g>
<g><path style="opacity:1" fill="#76410a" d="M 285.5,187.5 C 284.488,188.872 283.488,190.205 282.5,191.5C 281.048,189.148 279.048,188.815 276.5,190.5C 274.453,188.985 272.119,188.151 269.5,188C 269.043,187.586 268.709,187.086 268.5,186.5C 270.879,184.958 273.546,184.291 276.5,184.5C 278.5,184.667 280.5,184.833 282.5,185C 284.119,185.236 285.119,186.069 285.5,187.5 Z"/></g>
<g><path style="opacity:1" fill="#796832" d="M 213.5,192.5 C 217.298,191.517 221.298,191.183 225.5,191.5C 228.833,191.5 232.167,191.5 235.5,191.5C 242.5,191.5 249.5,191.5 256.5,191.5C 256.5,200.833 256.5,210.167 256.5,219.5C 256.5,222.5 256.5,225.5 256.5,228.5C 256.5,232.167 256.5,235.833 256.5,239.5C 256.167,239.5 255.833,239.5 255.5,239.5C 255.5,223.833 255.5,208.167 255.5,192.5C 241.5,192.5 227.5,192.5 213.5,192.5 Z"/></g>
<g><path style="opacity:1" fill="#784806" d="M 201.5,190.5 C 202.167,190.5 202.833,190.5 203.5,190.5C 210.833,190.5 218.167,190.5 225.5,190.5C 225.5,190.833 225.5,191.167 225.5,191.5C 221.298,191.183 217.298,191.517 213.5,192.5C 213.167,192.5 212.833,192.5 212.5,192.5C 198.5,192.5 184.5,192.5 170.5,192.5C 170.5,201.833 170.5,211.167 170.5,220.5C 169.209,220.737 168.209,220.404 167.5,219.5C 169.472,210.56 170.139,201.227 169.5,191.5C 176.5,191.5 183.5,191.5 190.5,191.5C 194.371,191.815 198.038,191.482 201.5,190.5 Z"/></g>
<g><path style="opacity:1" fill="#a81c18" d="M 212.5,192.5 C 212.5,202.833 212.5,213.167 212.5,223.5C 211.209,223.263 210.209,223.596 209.5,224.5C 206.873,225.092 204.206,225.425 201.5,225.5C 201.237,221.4 201.57,217.4 202.5,213.5C 202.5,211.5 202.5,209.5 202.5,207.5C 201.325,207.719 200.325,207.386 199.5,206.5C 200.428,205.232 200.595,203.899 200,202.5C 198.883,202.665 197.716,202.998 196.5,203.5C 195.833,204.833 195.167,206.167 194.5,207.5C 193.623,204.175 193.456,200.842 194,197.5C 192.374,197.854 190.541,197.854 188.5,197.5C 189.242,199.594 189.909,201.761 190.5,204C 190.392,205.681 189.725,206.848 188.5,207.5C 188.071,206.047 187.904,204.381 188,202.5C 186.883,202.665 185.716,202.998 184.5,203.5C 183.571,204.689 183.238,206.022 183.5,207.5C 182.5,207.5 181.5,207.5 180.5,207.5C 181.71,213.763 182.376,220.096 182.5,226.5C 181.5,226.5 180.5,226.5 179.5,226.5C 179.5,228.833 179.5,231.167 179.5,233.5C 182.833,233.5 186.167,233.5 189.5,233.5C 191.167,233.5 192.833,233.5 194.5,233.5C 196.167,233.5 197.833,233.5 199.5,233.5C 199.167,235.5 198.833,237.5 198.5,239.5C 193.833,239.5 189.167,239.5 184.5,239.5C 179.833,239.5 175.167,239.5 170.5,239.5C 170.815,235.629 170.482,231.962 169.5,228.5C 165.146,227.914 160.812,227.248 156.5,226.5C 152.085,226.305 147.751,226.805 143.5,228C 142.549,231.057 142.216,234.223 142.5,237.5C 140.345,237.628 138.345,237.128 136.5,236C 129.929,228.108 131.596,222.941 141.5,220.5C 142.167,220.5 142.5,220.167 142.5,219.5C 147.13,218.771 151.797,218.437 156.5,218.5C 160.269,218.244 163.936,218.577 167.5,219.5C 168.209,220.404 169.209,220.737 170.5,220.5C 170.5,211.167 170.5,201.833 170.5,192.5C 184.5,192.5 198.5,192.5 212.5,192.5 Z"/></g>
<g><path style="opacity:1" fill="#c7c6c7" d="M 213.5,192.5 C 227.5,192.5 241.5,192.5 255.5,192.5C 255.5,208.167 255.5,223.833 255.5,239.5C 246.167,239.5 236.833,239.5 227.5,239.5C 227.768,237.901 227.434,236.568 226.5,235.5C 225.3,229.963 221.966,226.297 216.5,224.5C 215.791,223.596 214.791,223.263 213.5,223.5C 213.5,213.167 213.5,202.833 213.5,192.5 Z"/></g>
<g><path style="opacity:1" fill="#543a2f" d="M 212.5,192.5 C 212.833,192.5 213.167,192.5 213.5,192.5C 213.5,202.833 213.5,213.167 213.5,223.5C 214.791,223.263 215.791,223.596 216.5,224.5C 214.167,224.5 211.833,224.5 209.5,224.5C 210.209,223.596 211.209,223.263 212.5,223.5C 212.5,213.167 212.5,202.833 212.5,192.5 Z"/></g>
<g><path style="opacity:1" fill="#897302" d="M 142.5,183.5 C 142.842,182.662 143.508,182.328 144.5,182.5C 146.741,186.161 149.741,188.994 153.5,191C 150.5,191.333 147.5,191.667 144.5,192C 147.817,192.498 151.15,192.665 154.5,192.5C 154.285,190.821 154.952,189.821 156.5,189.5C 156.586,190.496 156.252,191.329 155.5,192C 156.793,192.49 158.127,192.657 159.5,192.5C 158.949,196.653 157.949,200.32 156.5,203.5C 151.833,203.5 147.167,203.5 142.5,203.5C 142.5,208.833 142.5,214.167 142.5,219.5C 142.5,220.167 142.167,220.5 141.5,220.5C 141.188,213.578 141.521,206.744 142.5,200C 140.047,198.152 139.047,195.652 139.5,192.5C 140.873,192.657 142.207,192.49 143.5,192C 142.614,190.385 141.614,188.885 140.5,187.5C 141.583,187.539 142.583,187.873 143.5,188.5C 144.894,186.418 144.561,184.751 142.5,183.5 Z"/></g>
<g><path style="opacity:1" fill="#c7b100" d="M 140.5,193.5 C 146.5,193.5 152.5,193.5 158.5,193.5C 158.5,194.833 158.5,196.167 158.5,197.5C 152.5,197.5 146.5,197.5 140.5,197.5C 140.5,196.167 140.5,194.833 140.5,193.5 Z"/></g>
<g><path style="opacity:1" fill="#817840" d="M 241.5,201.5 C 239.999,200.248 238.332,199.248 236.5,198.5C 236.5,197.5 236.5,196.5 236.5,195.5C 239.821,196.211 242.488,198.044 244.5,201C 243.552,201.483 242.552,201.649 241.5,201.5 Z"/></g>
<g><path style="opacity:1" fill="#886e04" d="M 285.5,187.5 C 285.119,186.069 284.119,185.236 282.5,185C 280.5,184.833 278.5,184.667 276.5,184.5C 273.546,184.291 270.879,184.958 268.5,186.5C 268.709,187.086 269.043,187.586 269.5,188C 272.119,188.151 274.453,188.985 276.5,190.5C 279.048,188.815 281.048,189.148 282.5,191.5C 283.568,192.434 284.901,192.768 286.5,192.5C 286.917,195.079 286.25,197.246 284.5,199C 279.833,199.333 275.167,199.667 270.5,200C 275.679,200.054 280.679,200.721 285.5,202C 284.524,208.076 284.19,214.242 284.5,220.5C 284.167,220.5 283.833,220.5 283.5,220.5C 283.5,214.833 283.5,209.167 283.5,203.5C 278.833,203.5 274.167,203.5 269.5,203.5C 268.051,200.32 267.051,196.653 266.5,192.5C 270.96,192.42 271.126,190.754 267,187.5C 266.289,185.633 266.789,184.133 268.5,183C 270.81,182.503 273.143,182.337 275.5,182.5C 275.819,178.7 276.819,178.534 278.5,182C 280.5,182.333 282.5,182.667 284.5,183C 286.466,184.347 286.799,185.847 285.5,187.5 Z"/></g>
<g><path style="opacity:1" fill="#c7b100" d="M 267.5,193.5 C 273.5,193.5 279.5,193.5 285.5,193.5C 285.5,194.833 285.5,196.167 285.5,197.5C 279.5,197.5 273.5,197.5 267.5,197.5C 267.5,196.167 267.5,194.833 267.5,193.5 Z"/></g>
<g><path style="opacity:1" fill="#c0bfbe" d="M 156.5,203.5 C 156.5,208.5 156.5,213.5 156.5,218.5C 151.797,218.437 147.13,218.771 142.5,219.5C 142.5,214.167 142.5,208.833 142.5,203.5C 147.167,203.5 151.833,203.5 156.5,203.5 Z"/></g>
<g><path style="opacity:1" fill="#bbb8b6" d="M 269.5,203.5 C 274.167,203.5 278.833,203.5 283.5,203.5C 283.5,209.167 283.5,214.833 283.5,220.5C 278.85,219.74 274.183,219.074 269.5,218.5C 269.5,213.5 269.5,208.5 269.5,203.5 Z"/></g>
<g><path style="opacity:1" fill="#c0668c" d="M 236.5,198.5 C 238.332,199.248 239.999,200.248 241.5,201.5C 241.292,203.92 241.626,206.253 242.5,208.5C 239.969,210.594 239.136,213.261 240,216.5C 241.444,218.155 243.278,218.822 245.5,218.5C 245.45,214.812 245.116,211.145 244.5,207.5C 244.32,203.182 246.153,200.182 250,198.5C 250.167,199.167 250.333,199.833 250.5,200.5C 249.026,203.28 247.693,206.114 246.5,209C 247.657,212.113 248.157,215.28 248,218.5C 246.829,219.893 245.329,220.727 243.5,221C 242.115,222.965 242.282,224.798 244,226.5C 244.79,229.634 244.457,232.634 243,235.5C 242.395,233.519 241.395,233.185 240,234.5C 239.682,232.939 238.849,231.772 237.5,231C 238.623,229.956 239.956,229.29 241.5,229C 238.406,228.529 236.739,226.696 236.5,223.5C 235.548,225.045 235.215,226.712 235.5,228.5C 232.956,228.104 230.789,228.771 229,230.5C 228.1,229.23 226.934,228.23 225.5,227.5C 225.977,226.522 226.643,225.689 227.5,225C 227.167,224.667 226.833,224.333 226.5,224C 227.793,223.51 229.127,223.343 230.5,223.5C 230.433,220.234 232.099,218.734 235.5,219C 233.034,215.483 230.201,214.983 227,217.5C 226.586,217.043 226.086,216.709 225.5,216.5C 224.719,217.729 224.219,219.062 224,220.5C 223.021,218.68 221.521,217.513 219.5,217C 220.167,216.333 220.833,215.667 221.5,215C 220.289,214.107 220.289,213.274 221.5,212.5C 223.667,213.954 225.667,213.788 227.5,212C 225.383,208.583 222.383,206.416 218.5,205.5C 221.028,204.483 221.028,203.316 218.5,202C 219.784,201.316 220.951,201.483 222,202.5C 222.419,201.328 223.085,200.328 224,199.5C 223.77,205.637 226.603,207.804 232.5,206C 230.833,204.333 229.167,202.667 227.5,201C 229.367,200.289 230.867,200.789 232,202.5C 232.483,201.552 232.649,200.552 232.5,199.5C 233.959,199.567 235.292,199.234 236.5,198.5 Z"/></g>
<g><path style="opacity:1" fill="#6a5a18" d="M 188.5,207.5 C 188.631,208.239 188.464,208.906 188,209.5C 186.989,208.663 185.822,208.33 184.5,208.5C 184.5,209.5 184.5,210.5 184.5,211.5C 185.552,211.351 186.552,211.517 187.5,212C 186.66,213.666 187.16,213.833 189,212.5C 190.295,213.841 190.795,215.174 190.5,216.5C 193.123,215.877 195.789,215.877 198.5,216.5C 199.461,218.265 199.795,220.265 199.5,222.5C 197.833,222.5 196.167,222.5 194.5,222.5C 194.5,220.833 194.5,219.167 194.5,217.5C 192.549,217.227 191.049,217.893 190,219.5C 189.617,218.944 189.117,218.611 188.5,218.5C 188.189,217.522 187.522,216.855 186.5,216.5C 185.548,218.045 185.215,219.712 185.5,221.5C 186.5,221.5 187.5,221.5 188.5,221.5C 187.048,222.302 185.382,222.802 183.5,223C 184.8,224.579 184.466,225.745 182.5,226.5C 182.376,220.096 181.71,213.763 180.5,207.5C 181.5,207.5 182.5,207.5 183.5,207.5C 183.238,206.022 183.571,204.689 184.5,203.5C 185.716,202.998 186.883,202.665 188,202.5C 187.904,204.381 188.071,206.047 188.5,207.5 Z"/></g>
<g><path style="opacity:1" fill="#133ee5" d="M 188.5,218.5 C 188.5,219.5 188.5,220.5 188.5,221.5C 187.5,221.5 186.5,221.5 185.5,221.5C 185.215,219.712 185.548,218.045 186.5,216.5C 187.522,216.855 188.189,217.522 188.5,218.5 Z"/></g>
<g><path style="opacity:1" fill="#043aec" d="M 198.5,216.5 C 198.5,218.167 198.5,219.833 198.5,221.5C 197.5,221.5 196.5,221.5 195.5,221.5C 195.5,219.833 195.5,218.167 195.5,216.5C 196.5,216.5 197.5,216.5 198.5,216.5 Z"/></g>
<g><path style="opacity:1" fill="#7a6a05" d="M 202.5,213.5 C 200.57,217.373 199.903,221.706 200.5,226.5C 201.675,226.281 202.675,226.614 203.5,227.5C 202.199,229.444 201.199,231.444 200.5,233.5C 200.167,233.5 199.833,233.5 199.5,233.5C 197.833,233.5 196.167,233.5 194.5,233.5C 195.575,229.062 193.908,227.062 189.5,227.5C 189.5,229.5 189.5,231.5 189.5,233.5C 186.167,233.5 182.833,233.5 179.5,233.5C 179.5,231.167 179.5,228.833 179.5,226.5C 180.5,226.5 181.5,226.5 182.5,226.5C 184.466,225.745 184.8,224.579 183.5,223C 185.382,222.802 187.048,222.302 188.5,221.5C 188.5,220.5 188.5,219.5 188.5,218.5C 189.117,218.611 189.617,218.944 190,219.5C 191.049,217.893 192.549,217.227 194.5,217.5C 194.5,219.167 194.5,220.833 194.5,222.5C 196.167,222.5 197.833,222.5 199.5,222.5C 199.795,220.265 199.461,218.265 198.5,216.5C 195.789,215.877 193.123,215.877 190.5,216.5C 190.795,215.174 190.295,213.841 189,212.5C 187.16,213.833 186.66,213.666 187.5,212C 186.552,211.517 185.552,211.351 184.5,211.5C 184.5,210.5 184.5,209.5 184.5,208.5C 185.822,208.33 186.989,208.663 188,209.5C 188.464,208.906 188.631,208.239 188.5,207.5C 189.725,206.848 190.392,205.681 190.5,204C 189.909,201.761 189.242,199.594 188.5,197.5C 190.541,197.854 192.374,197.854 194,197.5C 193.456,200.842 193.623,204.175 194.5,207.5C 195.167,206.167 195.833,204.833 196.5,203.5C 197.716,202.998 198.883,202.665 200,202.5C 200.595,203.899 200.428,205.232 199.5,206.5C 200.325,207.386 201.325,207.719 202.5,207.5C 202.5,209.5 202.5,211.5 202.5,213.5 Z"/></g>
<g><path style="opacity:1" fill="#961c16" d="M 202.5,213.5 C 201.57,217.4 201.237,221.4 201.5,225.5C 204.206,225.425 206.873,225.092 209.5,224.5C 211.833,224.5 214.167,224.5 216.5,224.5C 221.966,226.297 225.3,229.963 226.5,235.5C 226.5,238.167 226.5,240.833 226.5,243.5C 226.577,244.75 227.244,245.583 228.5,246C 227.376,246.249 226.376,246.749 225.5,247.5C 227.489,248.615 229.322,248.282 231,246.5C 232.28,246.613 233.113,247.28 233.5,248.5C 232.726,251.8 232.559,255.134 233,258.5C 231.26,257.284 230.26,255.618 230,253.5C 228,252.167 226,250.833 224,249.5C 223.493,250.996 223.993,252.163 225.5,253C 225.167,253.333 224.833,253.667 224.5,254C 226.477,256.428 228.81,258.428 231.5,260C 228.223,259.638 224.89,259.638 221.5,260C 220.978,259.439 220.645,258.772 220.5,258C 222.182,256.105 222.682,253.938 222,251.5C 220.804,253.286 219.304,254.619 217.5,255.5C 216.167,255.5 214.833,255.5 213.5,255.5C 213.5,261.167 213.5,266.833 213.5,272.5C 213.167,272.5 212.833,272.5 212.5,272.5C 212.5,266.833 212.5,261.167 212.5,255.5C 211.178,255.67 210.011,255.337 209,254.5C 208.177,263.01 208.343,271.344 209.5,279.5C 207.833,281.833 205.833,283.833 203.5,285.5C 203.667,273.829 203.5,262.162 203,250.5C 201.628,249.09 200.795,247.423 200.5,245.5C 200.371,243.784 200.038,242.117 199.5,240.5C 200.219,238.236 200.552,235.903 200.5,233.5C 201.199,231.444 202.199,229.444 203.5,227.5C 202.675,226.614 201.675,226.281 200.5,226.5C 199.903,221.706 200.57,217.373 202.5,213.5 Z"/></g>
<g><path style="opacity:1" fill="#b9b6b5" d="M 156.5,226.5 C 156.5,228.5 156.5,230.5 156.5,232.5C 156.5,234.833 156.5,237.167 156.5,239.5C 151.844,241.16 147.177,242.826 142.5,244.5C 142.5,242.167 142.5,239.833 142.5,237.5C 142.216,234.223 142.549,231.057 143.5,228C 147.751,226.805 152.085,226.305 156.5,226.5 Z"/></g>
<g><path style="opacity:1" fill="#183ddb" d="M 194.5,233.5 C 192.833,233.5 191.167,233.5 189.5,233.5C 189.5,231.5 189.5,229.5 189.5,227.5C 193.908,227.062 195.575,229.062 194.5,233.5 Z"/></g>
<g><path style="opacity:1" fill="#c0bebe" d="M 281.5,227.5 C 281.833,227.5 282.167,227.5 282.5,227.5C 283.414,230.728 283.747,234.061 283.5,237.5C 283.802,240.059 283.468,242.393 282.5,244.5C 278.392,243.531 274.559,241.864 271,239.5C 270.501,235.179 270.334,230.846 270.5,226.5C 274.119,227.244 277.785,227.577 281.5,227.5 Z"/></g>
<g><path style="opacity:1" fill="#234d97" d="M 210.5,227.5 C 218.664,227.33 222.997,231.33 223.5,239.5C 222.668,245.832 219.168,249.832 213,251.5C 204.527,248.893 201.527,243.227 204,234.5C 205.694,231.642 207.861,229.309 210.5,227.5 Z"/></g>
<g><path style="opacity:1" fill="#9b8c07" d="M 207.5,232.5 C 209.057,233.466 210.39,234.8 211.5,236.5C 210.5,237.833 209.5,239.167 208.5,240.5C 207.5,239.167 206.5,237.833 205.5,236.5C 206.853,235.476 207.52,234.143 207.5,232.5 Z"/></g>
<g><path style="opacity:1" fill="#a12118" d="M 156.5,232.5 C 160.821,231.824 162.821,233.658 162.5,238C 162.668,242.336 160.668,245.17 156.5,246.5C 154.181,246.992 152.181,247.992 150.5,249.5C 147.702,250.65 145.035,251.983 142.5,253.5C 139.378,254.085 138.711,255.752 140.5,258.5C 140.444,259.737 139.944,260.737 139,261.5C 130.557,253.618 131.724,247.951 142.5,244.5C 147.177,242.826 151.844,241.16 156.5,239.5C 156.5,237.167 156.5,234.833 156.5,232.5 Z"/></g>
<g><path style="opacity:1" fill="#a59507" d="M 216.5,232.5 C 218.057,233.466 219.39,234.8 220.5,236.5C 219.5,237.833 218.5,239.167 217.5,240.5C 216.5,239.167 215.5,237.833 214.5,236.5C 215.853,235.476 216.52,234.143 216.5,232.5 Z"/></g>
<g><path style="opacity:1" fill="#a32818" d="M 269.5,218.5 C 274.183,219.074 278.85,219.74 283.5,220.5C 283.833,220.5 284.167,220.5 284.5,220.5C 295.445,224.12 296.445,229.62 287.5,237C 286.207,237.49 284.873,237.657 283.5,237.5C 283.747,234.061 283.414,230.728 282.5,227.5C 282.586,226.504 282.252,225.671 281.5,225C 283.657,223.915 283.824,222.749 282,221.5C 281.374,223.991 280.541,223.991 279.5,221.5C 278.042,223.138 277.708,224.805 278.5,226.5C 279.881,224.071 280.881,224.405 281.5,227.5C 277.785,227.577 274.119,227.244 270.5,226.5C 270.334,230.846 270.501,235.179 271,239.5C 274.559,241.864 278.392,243.531 282.5,244.5C 294.037,247.331 295.537,252.997 287,261.5C 284.949,259.191 285.116,257.024 287.5,255C 286.956,254.283 286.289,253.783 285.5,253.5C 285.158,252.662 284.492,252.328 283.5,252.5C 281.833,251.833 280.167,251.167 278.5,250.5C 276.046,249.773 273.713,248.773 271.5,247.5C 271.158,246.662 270.492,246.328 269.5,246.5C 263.875,244.373 262.042,240.373 264,234.5C 265.441,233.13 267.108,232.13 269,231.5C 269.494,229.866 269.66,228.199 269.5,226.5C 265.124,226.909 260.79,227.575 256.5,228.5C 256.5,225.5 256.5,222.5 256.5,219.5C 260.785,218.705 265.119,218.372 269.5,218.5 Z"/></g>
<g><path style="opacity:1" fill="#c28e06" d="M 282.5,227.5 C 282.167,227.5 281.833,227.5 281.5,227.5C 280.881,224.405 279.881,224.071 278.5,226.5C 277.708,224.805 278.042,223.138 279.5,221.5C 280.541,223.991 281.374,223.991 282,221.5C 283.824,222.749 283.657,223.915 281.5,225C 282.252,225.671 282.586,226.504 282.5,227.5 Z"/></g>
<g><path style="opacity:1" fill="#c49a03" d="M 260.5,220.5 C 263.016,221.6 264.016,223.267 263.5,225.5C 262.048,224.06 261.048,222.394 260.5,220.5 Z"/></g>
<g><path style="opacity:1" fill="#c2ab00" d="M 172.5,277.5 C 171.055,275.429 170.055,273.096 169.5,270.5C 170.494,260.681 170.827,250.681 170.5,240.5C 171.833,240.5 173.167,240.5 174.5,240.5C 174.667,253.171 174.5,265.838 174,278.5C 173.617,277.944 173.117,277.611 172.5,277.5 Z"/></g>
<g><path style="opacity:1" fill="#664506" d="M 169.5,228.5 C 170.482,231.962 170.815,235.629 170.5,239.5C 175.167,239.5 179.833,239.5 184.5,239.5C 184.5,239.833 184.5,240.167 184.5,240.5C 183.167,240.5 181.833,240.5 180.5,240.5C 180.5,255.5 180.5,270.5 180.5,285.5C 179.508,285.672 178.842,285.338 178.5,284.5C 179.496,270.01 179.829,255.343 179.5,240.5C 178.167,240.5 176.833,240.5 175.5,240.5C 175.5,254.167 175.5,267.833 175.5,281.5C 173.738,280.738 172.738,279.404 172.5,277.5C 173.117,277.611 173.617,277.944 174,278.5C 174.5,265.838 174.667,253.171 174.5,240.5C 173.167,240.5 171.833,240.5 170.5,240.5C 170.827,250.681 170.494,260.681 169.5,270.5C 169.5,256.5 169.5,242.5 169.5,228.5 Z"/></g>
<g><path style="opacity:1" fill="#a71518" d="M 178.5,284.5 C 177.167,283.833 176.167,282.833 175.5,281.5C 175.5,267.833 175.5,254.167 175.5,240.5C 176.833,240.5 178.167,240.5 179.5,240.5C 179.829,255.343 179.496,270.01 178.5,284.5 Z"/></g>
<g><path style="opacity:1" fill="#c5ae00" d="M 184.5,240.5 C 185.151,256.203 184.484,271.536 182.5,286.5C 181.508,286.672 180.842,286.338 180.5,285.5C 180.5,270.5 180.5,255.5 180.5,240.5C 181.833,240.5 183.167,240.5 184.5,240.5 Z"/></g>
<g><path style="opacity:1" fill="#632c0b" d="M 199.5,233.5 C 199.833,233.5 200.167,233.5 200.5,233.5C 200.552,235.903 200.219,238.236 199.5,240.5C 199.167,240.5 198.833,240.5 198.5,240.5C 197.167,240.5 195.833,240.5 194.5,240.5C 194.5,256.167 194.5,271.833 194.5,287.5C 195.5,287.5 196.5,287.5 197.5,287.5C 196.432,288.434 195.099,288.768 193.5,288.5C 193.5,272.5 193.5,256.5 193.5,240.5C 192.167,240.5 190.833,240.5 189.5,240.5C 189.5,256.5 189.5,272.5 189.5,288.5C 188.833,288.5 188.167,288.5 187.5,288.5C 185.447,288.598 183.78,287.931 182.5,286.5C 184.484,271.536 185.151,256.203 184.5,240.5C 184.5,240.167 184.5,239.833 184.5,239.5C 189.167,239.5 193.833,239.5 198.5,239.5C 198.833,237.5 199.167,235.5 199.5,233.5 Z"/></g>
<g><path style="opacity:1" fill="#ac1418" d="M 185.5,240.5 C 186.5,240.5 187.5,240.5 188.5,240.5C 188.5,256.167 188.5,271.833 188.5,287.5C 187.5,287.5 186.5,287.5 185.5,287.5C 185.5,271.833 185.5,256.167 185.5,240.5 Z"/></g>
<g><path style="opacity:1" fill="#c6af00" d="M 193.5,288.5 C 192.167,288.5 190.833,288.5 189.5,288.5C 189.5,272.5 189.5,256.5 189.5,240.5C 190.833,240.5 192.167,240.5 193.5,240.5C 193.5,256.5 193.5,272.5 193.5,288.5 Z"/></g>
<g><path style="opacity:1" fill="#aa1418" d="M 198.5,240.5 C 198.5,256.167 198.5,271.833 198.5,287.5C 198.167,287.5 197.833,287.5 197.5,287.5C 196.5,287.5 195.5,287.5 194.5,287.5C 194.5,271.833 194.5,256.167 194.5,240.5C 195.833,240.5 197.167,240.5 198.5,240.5 Z"/></g>
<g><path style="opacity:1" fill="#a81f19" d="M 255.5,272.5 C 252.795,281.536 246.795,287.203 237.5,289.5C 225.618,289.282 217.618,283.615 213.5,272.5C 213.5,266.833 213.5,261.167 213.5,255.5C 214.833,255.5 216.167,255.5 217.5,255.5C 220.038,257.322 220.038,259.322 217.5,261.5C 218.167,262.5 218.833,263.5 219.5,264.5C 218.389,265.611 217.722,266.945 217.5,268.5C 218.836,271.009 219.67,273.676 220,276.5C 222.941,276.941 224.774,278.607 225.5,281.5C 228.674,280.88 231.674,281.547 234.5,283.5C 237.145,282.892 239.812,282.392 242.5,282C 243.532,279.126 245.532,277.626 248.5,277.5C 248.27,274.306 248.936,271.306 250.5,268.5C 248.931,265.88 249.264,263.547 251.5,261.5C 250.389,260.389 249.722,259.055 249.5,257.5C 249.512,252.842 249.846,248.175 250.5,243.5C 248.4,243.477 246.567,244.144 245,245.5C 243.908,244.704 242.741,244.037 241.5,243.5C 236.786,243.691 232.119,243.691 227.5,243.5C 227.5,242.5 227.5,241.5 227.5,240.5C 236.833,240.5 246.167,240.5 255.5,240.5C 255.5,251.167 255.5,261.833 255.5,272.5 Z"/></g>
<g><path style="opacity:1" fill="#502219" d="M 226.5,235.5 C 227.434,236.568 227.768,237.901 227.5,239.5C 236.833,239.5 246.167,239.5 255.5,239.5C 255.833,239.5 256.167,239.5 256.5,239.5C 256.828,250.679 256.495,261.679 255.5,272.5C 255.5,261.833 255.5,251.167 255.5,240.5C 246.167,240.5 236.833,240.5 227.5,240.5C 227.5,241.5 227.5,242.5 227.5,243.5C 227.167,243.5 226.833,243.5 226.5,243.5C 226.5,240.833 226.5,238.167 226.5,235.5 Z"/></g>
<g><path style="opacity:1" fill="#958917" d="M 212.5,239.5 C 213.829,241.059 215.162,242.725 216.5,244.5C 215.821,246.125 214.655,247.458 213,248.5C 212.617,246.963 211.784,245.63 210.5,244.5C 212.005,243.158 212.672,241.492 212.5,239.5 Z"/></g>
<g><path style="opacity:1" fill="#c6af00" d="M 200.5,245.5 C 200.795,247.423 201.628,249.09 203,250.5C 203.5,262.162 203.667,273.829 203.5,285.5C 202.391,285.557 201.391,285.89 200.5,286.5C 199.167,272.833 199.167,259.167 200.5,245.5 Z"/></g>
<g><path style="opacity:1" fill="#cacaca" d="M 271.5,247.5 C 273.713,248.773 276.046,249.773 278.5,250.5C 279.46,257.078 279.793,263.745 279.5,270.5C 276.5,270.5 273.5,270.5 270.5,270.5C 270.175,262.648 270.508,254.982 271.5,247.5 Z"/></g>
<g><path style="opacity:1" fill="#9b9793" d="M 156.5,246.5 C 156.5,254.833 156.5,263.167 156.5,271.5C 151.833,271.5 147.167,271.5 142.5,271.5C 142.5,271.167 142.5,270.833 142.5,270.5C 145.5,270.5 148.5,270.5 151.5,270.5C 151.825,263.313 151.491,256.313 150.5,249.5C 152.181,247.992 154.181,246.992 156.5,246.5 Z"/></g>
<g><path style="opacity:1" fill="#c7c7c7" d="M 150.5,249.5 C 151.491,256.313 151.825,263.313 151.5,270.5C 148.5,270.5 145.5,270.5 142.5,270.5C 142.5,264.833 142.5,259.167 142.5,253.5C 145.035,251.983 147.702,250.65 150.5,249.5 Z"/></g>
<g><path style="opacity:1" fill="#97938b" d="M 269.5,246.5 C 270.492,246.328 271.158,246.662 271.5,247.5C 270.508,254.982 270.175,262.648 270.5,270.5C 273.5,270.5 276.5,270.5 279.5,270.5C 279.793,263.745 279.46,257.078 278.5,250.5C 280.167,251.167 281.833,251.833 283.5,252.5C 283.5,258.833 283.5,265.167 283.5,271.5C 278.833,271.5 274.167,271.5 269.5,271.5C 269.5,263.167 269.5,254.833 269.5,246.5 Z"/></g>
<g><path style="opacity:1" fill="#c0aa00" d="M 212.5,272.5 C 211.695,274.915 210.695,277.249 209.5,279.5C 208.343,271.344 208.177,263.01 209,254.5C 210.011,255.337 211.178,255.67 212.5,255.5C 212.5,261.167 212.5,266.833 212.5,272.5 Z"/></g>
<g><path style="opacity:1" fill="#785e03" d="M 198.5,240.5 C 198.833,240.5 199.167,240.5 199.5,240.5C 200.038,242.117 200.371,243.784 200.5,245.5C 199.167,259.167 199.167,272.833 200.5,286.5C 200.158,287.338 199.492,287.672 198.5,287.5C 198.5,271.833 198.5,256.167 198.5,240.5 Z"/></g>
<g><path style="opacity:1" fill="#c39705" d="M 226.5,243.5 C 226.833,243.5 227.167,243.5 227.5,243.5C 232.119,243.691 236.786,243.691 241.5,243.5C 242.741,244.037 243.908,244.704 245,245.5C 246.567,244.144 248.4,243.477 250.5,243.5C 249.846,248.175 249.512,252.842 249.5,257.5C 249.722,259.055 250.389,260.389 251.5,261.5C 249.264,263.547 248.931,265.88 250.5,268.5C 248.936,271.306 248.27,274.306 248.5,277.5C 245.532,277.626 243.532,279.126 242.5,282C 239.812,282.392 237.145,282.892 234.5,283.5C 231.674,281.547 228.674,280.88 225.5,281.5C 224.774,278.607 222.941,276.941 220,276.5C 219.67,273.676 218.836,271.009 217.5,268.5C 217.722,266.945 218.389,265.611 219.5,264.5C 218.833,263.5 218.167,262.5 217.5,261.5C 220.038,259.322 220.038,257.322 217.5,255.5C 219.304,254.619 220.804,253.286 222,251.5C 222.682,253.938 222.182,256.105 220.5,258C 220.645,258.772 220.978,259.439 221.5,260C 224.89,259.638 228.223,259.638 231.5,260C 228.81,258.428 226.477,256.428 224.5,254C 224.833,253.667 225.167,253.333 225.5,253C 223.993,252.163 223.493,250.996 224,249.5C 226,250.833 228,252.167 230,253.5C 230.26,255.618 231.26,257.284 233,258.5C 232.559,255.134 232.726,251.8 233.5,248.5C 233.113,247.28 232.28,246.613 231,246.5C 229.322,248.282 227.489,248.615 225.5,247.5C 226.376,246.749 227.376,246.249 228.5,246C 227.244,245.583 226.577,244.75 226.5,243.5 Z"/></g>
<g><path style="opacity:1" fill="#ae2317" d="M 235.5,264.5 C 237.067,265.681 237.901,267.347 238,269.5C 240,270.833 242,272.167 244,273.5C 244.49,274.793 244.657,276.127 244.5,277.5C 241.163,277.677 238.163,278.677 235.5,280.5C 236.833,275.167 236.833,269.833 235.5,264.5 Z"/></g>
<g><path style="opacity:1" fill="#ae2317" d="M 232.5,264.5 C 232.578,269.355 232.745,274.355 233,279.5C 232.586,279.957 232.086,280.291 231.5,280.5C 229.754,278.146 227.421,277.146 224.5,277.5C 224.195,273.799 225.862,271.466 229.5,270.5C 230.129,268.259 231.129,266.259 232.5,264.5 Z"/></g>
<g><path style="opacity:1" fill="#b02a17" d="M 236.5,263.5 C 236.5,263.167 236.5,262.833 236.5,262.5C 239.324,263.763 242.157,263.763 245,262.5C 246.28,262.613 247.113,263.28 247.5,264.5C 246.167,266.833 246.167,269.167 247.5,271.5C 246.349,272.731 245.183,272.731 244,271.5C 243.388,267.054 240.888,264.388 236.5,263.5 Z"/></g>
<g><path style="opacity:1" fill="#b02f16" d="M 232.5,262.5 C 232.5,262.833 232.5,263.167 232.5,263.5C 230.887,265.27 228.887,266.436 226.5,267C 225.971,269.429 224.637,271.262 222.5,272.5C 223.13,269.684 222.464,267.018 220.5,264.5C 221,263.119 222,262.453 223.5,262.5C 226.496,263.668 229.496,263.668 232.5,262.5 Z"/></g>
<g><path style="opacity:1" fill="#249066" d="M 236.5,262.5 C 236.5,262.833 236.5,263.167 236.5,263.5C 235.167,263.5 233.833,263.5 232.5,263.5C 232.5,263.167 232.5,262.833 232.5,262.5C 232.5,261.5 232.5,260.5 232.5,259.5C 233.833,259.5 235.167,259.5 236.5,259.5C 236.5,260.5 236.5,261.5 236.5,262.5 Z"/></g>
<g><path style="opacity:1" fill="#af2617" d="M 246.5,249.5 C 246.564,252.926 246.898,256.592 247.5,260.5C 243.913,259.82 240.58,259.487 237.5,259.5C 239.22,258.08 241.054,256.747 243,255.5C 243.564,253.113 244.73,251.113 246.5,249.5 Z"/></g>
<g><path style="opacity:1" fill="#ae2217" d="M 236.5,246.5 C 238.156,247.146 239.823,247.813 241.5,248.5C 243.05,247.268 244.717,246.768 246.5,247C 244.591,249.413 242.257,251.247 239.5,252.5C 238.982,254.9 237.815,256.9 236,258.5C 236.406,254.394 236.573,250.394 236.5,246.5 Z"/></g>
<g><path style="opacity:1" fill="#927f03" d="M 142.5,271.5 C 147.167,271.5 151.833,271.5 156.5,271.5C 158.268,274.586 159.601,277.919 160.5,281.5C 153.167,281.5 145.833,281.5 138.5,281.5C 139.399,277.919 140.732,274.586 142.5,271.5 Z"/></g>
<g><path style="opacity:1" fill="#958004" d="M 283.5,252.5 C 284.492,252.328 285.158,252.662 285.5,253.5C 284.572,260.496 284.239,267.496 284.5,274.5C 285.025,275.192 285.692,275.692 286.5,276C 280.175,276.5 273.842,276.666 267.5,276.5C 267.5,277.833 267.5,279.167 267.5,280.5C 274.354,280.176 281.021,280.509 287.5,281.5C 280.5,281.5 273.5,281.5 266.5,281.5C 266.521,277.779 267.521,274.446 269.5,271.5C 274.167,271.5 278.833,271.5 283.5,271.5C 283.5,265.167 283.5,258.833 283.5,252.5 Z"/></g>
<g><path style="opacity:1" fill="#c7b100" d="M 140.5,276.5 C 146.5,276.5 152.5,276.5 158.5,276.5C 158.5,277.833 158.5,279.167 158.5,280.5C 152.5,280.5 146.5,280.5 140.5,280.5C 140.5,279.167 140.5,277.833 140.5,276.5 Z"/></g>
<g><path style="opacity:1" fill="#1d539d" d="M 266.5,281.5 C 273.5,281.5 280.5,281.5 287.5,281.5C 284.177,282.362 280.677,283.028 277,283.5C 272.491,282.211 267.991,282.211 263.5,283.5C 263.821,281.952 264.821,281.285 266.5,281.5 Z"/></g>
<g><path style="opacity:1" fill="#989586" d="M 136.5,281.5 C 136.369,282.376 136.702,283.043 137.5,283.5C 145.326,283.442 153.16,283.442 161,283.5C 162.03,283.164 162.53,282.497 162.5,281.5C 163.482,284.962 163.815,288.629 163.5,292.5C 161.901,292.768 160.568,292.434 159.5,291.5C 160.675,291.719 161.675,291.386 162.5,290.5C 160.556,289.149 158.389,288.482 156,288.5C 149.487,289.022 142.987,289.688 136.5,290.5C 136.957,291.298 137.624,291.631 138.5,291.5C 137.791,292.404 136.791,292.737 135.5,292.5C 135.185,288.629 135.518,284.962 136.5,281.5 Z"/></g>
<g><path style="opacity:1" fill="#1755a7" d="M 136.5,281.5 C 137.167,281.5 137.833,281.5 138.5,281.5C 145.833,281.5 153.167,281.5 160.5,281.5C 161.167,281.5 161.833,281.5 162.5,281.5C 162.53,282.497 162.03,283.164 161,283.5C 153.16,283.442 145.326,283.442 137.5,283.5C 136.702,283.043 136.369,282.376 136.5,281.5 Z"/></g>
<g><path style="opacity:1" fill="#1c529b" d="M 138.5,284.5 C 144.193,285.286 149.86,285.286 155.5,284.5C 157.973,284.701 160.306,285.368 162.5,286.5C 154.436,287.306 146.269,287.639 138,287.5C 137.5,287.167 137,286.833 136.5,286.5C 137.243,285.818 137.909,285.151 138.5,284.5 Z"/></g>
<g><path style="opacity:1" fill="#aaa59d" d="M 212.5,272.5 C 212.833,272.5 213.167,272.5 213.5,272.5C 217.618,283.615 225.618,289.282 237.5,289.5C 225.485,293.296 213.152,294.463 200.5,293C 195.789,292.249 191.456,290.749 187.5,288.5C 188.167,288.5 188.833,288.5 189.5,288.5C 190.833,288.5 192.167,288.5 193.5,288.5C 195.099,288.768 196.432,288.434 197.5,287.5C 197.833,287.5 198.167,287.5 198.5,287.5C 199.492,287.672 200.158,287.338 200.5,286.5C 201.391,285.89 202.391,285.557 203.5,285.5C 205.833,283.833 207.833,281.833 209.5,279.5C 210.695,277.249 211.695,274.915 212.5,272.5 Z"/></g>
<g><path style="opacity:1" fill="#c48b5d" d="M 211.5,280.5 C 217.016,280.473 218.349,282.64 215.5,287C 209.678,287.518 208.344,285.351 211.5,280.5 Z"/></g>
<g><path style="opacity:1" fill="#1e539f" d="M 263.5,287.5 C 263.5,286.833 263.5,286.167 263.5,285.5C 272.248,284.545 280.915,285.045 289.5,287C 280.863,287.492 272.196,287.658 263.5,287.5 Z"/></g>
<g><path style="opacity:1" fill="#878b8b" d="M 287.5,281.5 C 288.5,281.5 289.5,281.5 290.5,281.5C 290.5,285.167 290.5,288.833 290.5,292.5C 289.209,292.737 288.209,292.404 287.5,291.5C 288.376,291.631 289.043,291.298 289.5,290.5C 287.833,290.167 286.167,289.833 284.5,289.5C 277.523,290.285 270.523,290.285 263.5,289.5C 263.5,288.833 263.5,288.167 263.5,287.5C 272.196,287.658 280.863,287.492 289.5,287C 280.915,285.045 272.248,284.545 263.5,285.5C 263.5,284.833 263.5,284.167 263.5,283.5C 267.991,282.211 272.491,282.211 277,283.5C 280.677,283.028 284.177,282.362 287.5,281.5 Z"/></g>
<g><path style="opacity:1" fill="#2b528e" d="M 159.5,291.5 C 152.471,292.822 145.471,292.822 138.5,291.5C 137.624,291.631 136.957,291.298 136.5,290.5C 142.987,289.688 149.487,289.022 156,288.5C 158.389,288.482 160.556,289.149 162.5,290.5C 161.675,291.386 160.675,291.719 159.5,291.5 Z"/></g>
<g><path style="opacity:1" fill="#216352" d="M 204.5,287.5 C 207.673,287.401 210.673,288.068 213.5,289.5C 216.583,287.654 219.916,287.154 223.5,288C 220.956,290.093 217.956,291.093 214.5,291C 214,291.5 213.5,292 213,292.5C 210.845,290.833 208.345,289.833 205.5,289.5C 204.702,289.043 204.369,288.376 204.5,287.5 Z"/></g>
<g><path style="opacity:1" fill="#2657a5" d="M 263.5,289.5 C 270.523,290.285 277.523,290.285 284.5,289.5C 286.167,289.833 287.833,290.167 289.5,290.5C 289.043,291.298 288.376,291.631 287.5,291.5C 286.033,291.106 284.533,290.773 283,290.5C 280.921,291.403 278.754,292.069 276.5,292.5C 274.246,292.069 272.079,291.403 270,290.5C 268.486,290.77 266.986,291.103 265.5,291.5C 264.287,291.253 263.62,290.586 263.5,289.5 Z"/></g>
<g><path style="opacity:1" fill="#c60b1d" d="M -0.5,319.5 C 212.833,319.5 426.167,319.5 639.5,319.5C 639.5,355.167 639.5,390.833 639.5,426.5C 426.167,426.5 212.833,426.5 -0.5,426.5C -0.5,390.833 -0.5,355.167 -0.5,319.5 Z"/></g>
</svg>
